PathFileType	4	(X/Y/Z) shrug_2kg_2.trc																										
DataRate	CameraRate	NumFrames	NumMarkers	Units	OrigDataRate	OrigDataStartFrame	OrigNumFrames																					
100	100	29	9	mm	100	241	480																					
Frame#	Time	gu			centelbow			EpL			centpxt8			centijc7			ij			ts			aa			ai		
		X1	Y1	Z1	X2	Y2	Z2	X3	Y3	Z3	X4	Y4	Z4	X5	Y5	Z5	X6	Y6	Z6	X7	Y7	Z7	X8	Y8	Z8	X9	Y9	Z9  
240	2.4	-125.163	50.689	149.874	-119.348	-186.78	217.395	-115.762	-174.165	246.847	-46.816	-153.158	-8.669	-46.816	31.938	-8.669	0	0	0	-129.53	42.409	14.943	-156.584	78.858	125.235	-141.328	-63.943	52.832
241	2.41	-125.131	50.745	149.946	-119.403	-186.742	217.41	-115.812	-174.136	246.865	-46.816	-153.158	-8.669	-46.816	31.938	-8.669	0	0	0	-129.607	42.514	15.02	-156.677	78.922	125.322	-141.436	-63.852	52.861
242	2.42	-125.259	50.909	149.913	-119.523	-186.574	217.388	-115.936	-173.967	246.843	-46.816	-153.158	-8.669	-46.816	31.938	-8.669	0	0	0	-129.815	42.525	14.896	-156.895	78.906	125.204	-141.673	-63.85	52.704
243	2.43	-125.49	50.941	149.906	-119.735	-186.539	217.39	-116.148	-173.93	246.844	-46.816	-153.158	-8.669	-46.816	31.938	-8.669	0	0	0	-129.913	42.471	14.599	-156.972	78.843	124.915	-141.806	-63.906	52.389
244	2.44	-125.737	50.634	150.026	-120.043	-186.86	217.469	-116.446	-174.256	246.925	-46.816	-153.158	-8.669	-46.816	31.938	-8.669	0	0	0	-129.849	42.311	14.34	-156.87	78.677	124.668	-141.777	-64.067	52.118
245	2.45	-125.91	50.172	150.202	-120.325	-187.339	217.594	-116.711	-174.744	247.051	-46.816	-153.158	-8.669	-46.816	31.938	-8.669	0	0	0	-129.746	42.067	14.221	-156.74	78.429	124.556	-141.696	-64.312	51.989
246	2.46	-125.917	49.96	150.282	-120.384	-187.556	217.662	-116.75	-174.963	247.117	-46.816	-153.158	-8.669	-46.816	31.938	-8.669	0	0	0	-129.693	41.906	14.18	-156.682	78.261	124.519	-141.642	-64.475	51.942
247	2.47	-125.805	50.139	150.14	-120.213	-187.369	217.542	-116.561	-174.773	246.994	-46.816	-153.158	-8.669	-46.816	31.938	-8.669	0	0	0	-129.718	41.936	14.193	-156.714	78.269	124.537	-141.644	-64.453	51.938
248	2.48	-125.724	50.506	149.849	-119.996	-186.992	217.276	-116.326	-174.391	246.724	-46.816	-153.158	-8.669	-46.816	31.938	-8.669	0	0	0	-129.827	42.122	14.329	-156.846	78.414	124.682	-141.716	-64.282	52.044
249	2.49	-125.657	50.79	149.736	-119.808	-186.705	217.16	-116.127	-174.103	246.605	-46.816	-153.158	-8.669	-46.816	31.938	-8.669	0	0	0	-129.969	42.388	14.579	-157.028	78.641	124.934	-141.817	-64.03	52.266
250	2.5	-125.447	50.815	150.018	-119.601	-186.695	217.392	-115.916	-174.099	246.84	-46.816	-153.158	-8.669	-46.816	31.938	-8.669	0	0	0	-130.038	42.612	14.76	-157.13	78.856	125.11	-141.864	-63.811	52.444
251	2.51	-125.151	50.568	150.507	-119.433	-186.971	217.788	-115.745	-174.389	247.241	-46.816	-153.158	-8.669	-46.816	31.938	-8.669	0	0	0	-130.032	42.635	14.764	-157.126	78.887	125.112	-141.862	-63.784	52.454
252	2.52	-125.018	50.209	150.844	-119.421	-187.362	218.022	-115.728	-174.794	247.481	-46.816	-153.158	-8.669	-46.816	31.938	-8.669	0	0	0	-130.062	42.441	14.719	-157.141	78.678	125.075	-141.909	-63.983	52.391
253	2.53	-125.114	49.947	150.928	-119.535	-187.646	218.03	-115.837	-175.087	247.493	-46.816	-153.158	-8.669	-46.816	31.938	-8.669	0	0	0	-130.155	42.241	14.753	-157.226	78.44	125.123	-142.016	-64.196	52.385
254	2.54	-125.256	49.892	150.913	-119.623	-187.707	217.99	-115.926	-175.151	247.454	-46.816	-153.158	-8.669	-46.816	31.938	-8.669	0	0	0	-130.225	42.246	14.842	-157.291	78.416	125.223	-142.086	-64.201	52.445
255	2.55	-125.248	49.991	150.877	-119.571	-187.6	217.977	-115.875	-175.041	247.439	-46.816	-153.158	-8.669	-46.816	31.938	-8.669	0	0	0	-130.222	42.388	14.914	-157.281	78.548	125.3	-142.075	-64.062	52.51
256	2.56	-125.098	50.14	150.773	-119.408	-187.438	217.919	-115.706	-174.872	247.378	-46.816	-153.158	-8.669	-46.816	31.938	-8.669	0	0	0	-130.186	42.444	14.947	-157.233	78.6	125.337	-142.037	-64.008	52.541
257	2.57	-124.994	50.298	150.688	-119.28	-187.269	217.872	-115.567	-174.698	247.328	-46.816	-153.158	-8.669	-46.816	31.938	-8.669	0	0	0	-130.155	42.365	14.954	-157.176	78.521	125.351	-142.013	-64.087	52.546
258	2.58	-125.045	50.392	150.749	-119.286	-187.175	217.926	-115.566	-174.606	247.381	-46.816	-153.158	-8.669	-46.816	31.938	-8.669	0	0	0	-130.141	42.263	14.948	-157.128	78.423	125.351	-142.014	-64.186	52.541
259	2.59	-125.164	50.323	150.881	-119.403	-187.261	217.998	-115.675	-174.699	247.455	-46.816	-153.158	-8.669	-46.816	31.938	-8.669	0	0	0	-130.198	42.2	14.92	-157.163	78.36	125.328	-142.099	-64.248	52.507
260	2.6	-125.242	50.184	150.953	-119.546	-187.419	218.013	-115.812	-174.864	247.472	-46.816	-153.158	-8.669	-46.816	31.938	-8.669	0	0	0	-130.334	42.175	14.876	-157.288	78.329	125.29	-142.273	-64.275	52.448
261	2.61	-125.239	50.144	150.93	-119.656	-187.464	217.98	-115.915	-174.912	247.44	-46.816	-153.158	-8.669	-46.816	31.938	-8.669	0	0	0	-130.396	42.188	14.892	-157.342	78.341	125.309	-142.386	-64.26	52.45
262	2.62	-125.157	50.209	150.795	-119.711	-187.397	217.863	-115.962	-174.845	247.322	-46.816	-153.158	-8.669	-46.816	31.938	-8.669	0	0	0	-130.291	42.274	14.974	-157.239	78.427	125.39	-142.337	-64.174	52.518
263	2.63	-125.069	50.359	150.609	-119.737	-187.247	217.688	-115.981	-174.696	247.146	-46.816	-153.158	-8.669	-46.816	31.938	-8.669	0	0	0	-130.177	42.455	14.992	-157.141	78.601	125.406	-142.258	-63.994	52.52
264	2.64	-125.07	50.572	150.489	-119.812	-187.037	217.561	-116.049	-174.488	247.02	-46.816	-153.158	-8.669	-46.816	31.938	-8.669	0	0	0	-130.216	42.617	14.916	-157.187	78.752	125.331	-142.31	-63.835	52.429
265	2.65	-125.106	50.675	150.433	-119.941	-186.942	217.484	-116.163	-174.397	246.942	-46.816	-153.158	-8.669	-46.816	31.938	-8.669	0	0	0	-130.278	42.603	14.873	-157.231	78.73	125.295	-142.411	-63.851	52.369
266	2.66	-125.009	50.557	150.421	-120.005	-187.069	217.452	-116.205	-174.529	246.909	-46.816	-153.158	-8.669	-46.816	31.938	-8.669	0	0	0	-130.189	42.479	14.956	-157.122	78.601	125.385	-142.405	-63.974	52.427
267	2.67	-124.814	50.38	150.465	-119.985	-187.246	217.507	-116.165	-174.708	246.963	-46.816	-153.158	-8.669	-46.816	31.938	-8.669	0	0	0	-130.103	42.413	15.107	-157.05	78.534	125.533	-142.408	-64.039	52.554
268	2.68	-124.746	50.33	150.474	-120.024	-187.285	217.566	-116.193	-174.743	247.018	-46.816	-153.158	-8.669	-46.816	31.938	-8.669	0	0	0	-130.246	42.398	15.176	-157.224	78.522	125.593	-142.604	-64.051	52.612
